<?xml version="1.0" encoding="utf-8"?>
<!-- Generator: Adobe Illustrator 25.0.0, SVG Export Plug-In . SVG Version: 6.00 Build 0)  -->
<svg version="1.1" id="logo" xmlns="http://www.w3.org/2000/svg" xmlns:xlink="http://www.w3.org/1999/xlink" x="0px" y="0px"
	 viewBox="0 0 792.8 278.1" style="enable-background:new 0 0 792.8 278.1;" xml:space="preserve">
<style type="text/css">
	.st0{fill-rule:evenodd;clip-rule:evenodd;fill:url(#SVGID_1_);}
	.st1{opacity:0.4;}
	.st2{fill:#FFFFFF;}
	.st3{display:none;}
	.st4{display:inline;opacity:0.2;fill-rule:evenodd;clip-rule:evenodd;fill:#FFFFFF;enable-background:new    ;}
	.st5{display:inline;opacity:0.26;fill:#FFFFFF;enable-background:new    ;}
	.st6{fill-rule:evenodd;clip-rule:evenodd;fill:#FFFFFF;}
	.st7{fill-rule:evenodd;clip-rule:evenodd;fill:#FC281D;}
</style>
<g id="bg1_描边分离">
	<g id="_x31_">
		
			<linearGradient id="SVGID_1_" gradientUnits="userSpaceOnUse" x1="163.4999" y1="138" x2="629.4999" y2="138" gradientTransform="matrix(1 0 0 -1 0 277)">
			<stop  offset="0" style="stop-color:#FFFFFF;stop-opacity:0.2"/>
			<stop  offset="1" style="stop-color:#FFFFFF;stop-opacity:0.2"/>
		</linearGradient>
		<path class="st0" d="M590.4,189.4c-4.2,1.1-8.4,1.6-12.9,1.6c-0.7,0-1.6,0-2.3,0h-45.9H166.5c-1.7,0-3-1.3-3-3s1.3-3,3-3h247.9
			h0.1c8.8-0.1,24-3.9,29-6.8c23-14.7,25.5-37.6,32.9-56.4c7.1-20.3,26.4-34.8,49.1-34.8h52c28.7,0,52,23.3,52,52
			C629.5,163.2,612.9,183.6,590.4,189.4z"/>
		<g class="st1">
			<path class="st2" d="M577.5,87c28.7,0,52,23.3,52,52c0,24.2-16.6,44.6-39.1,50.4c-4.2,1.1-8.4,1.6-12.9,1.6c-0.5,0-1,0-1.5,0
				c-0.3,0-0.5,0-0.7,0h-45.9H166.6c-1.7,0-3-1.3-3-3s1.3-3,3-3h247.9h0.1c8.8-0.1,24-3.9,29-6.8c23-14.7,25.5-37.6,32.9-56.4
				c7.1-20.3,26.4-34.8,49.1-34.8H577.5 M577.5,83h-52c-23.8,0-45,15.1-52.9,37.5c-1.6,4-2.9,8.3-4.3,12.4
				c-4.9,15.3-10,31.1-26.9,42c-4.6,2.6-19,6.1-27,6.2h-0.1H166.4c-3.9,0-7,3.1-7,7c0,3.9,3.1,7,7,7h362.8H575c0.3,0,0.5,0,0.8,0
				s0.6,0,0.9,0c0.2,0,0.5,0,0.7,0c4.9,0,9.4-0.6,14-1.8c24.7-6.3,42-28.6,42-54.2C633.5,108.1,608.4,83,577.5,83L577.5,83z"/>
		</g>
	</g>
</g>
<g id="bg2_描边重叠" class="st3">
	<path id="_x32__1_" class="st4" d="M-344.8,348.3h-1l0,0H-399h-358.8c-3.9,0-7-3.1-7-7s3.1-7,7-7h243.9h0.1c8.8-0.1,24-3.9,29-6.8
		c23-14.7,25.5-37.6,32.9-56.4c7.1-20.3,26.4-34.8,49.1-34.8h7l0,0h51c29.8,0,54,26.2,54,56C-290.8,322.1-314.9,348.3-344.8,348.3z"
		/>
	<path id="_x31__2_" class="st5" d="M-344.8,240.3c27.1,0,50,23.8,50,52c0,28.2-22.9,52-50,52h-1H-399h-358.8c-1.7,0-3-1.3-3-3
		s1.3-3,3-3h243.9h0.1c9.7-0.1,25.4-4.1,31-7.3l0.1-0.1l0.1-0.1c19.4-12.4,25.2-30.4,30.3-46.3c1.4-4.2,2.6-8.2,4.1-12v-0.1v-0.1
		c6.7-19.2,24.9-32.2,45.3-32.2h7h51.1 M-344.8,236.3h-51h-7c-22.7,0-42,14.6-49.1,34.8c-7.3,18.8-9.9,41.7-32.9,56.4
		c-5,2.9-20.3,6.7-29,6.8h-0.1h-243.9c-3.9,0-7,3.1-7,7s3.1,7,7,7H-399h53.2h1c29.8,0,54-26.2,54-56
		C-290.8,262.4-314.9,236.3-344.8,236.3L-344.8,236.3z"/>
</g>
<g id="cctv">
	<path id="ctv" class="st6" d="M435.2,154.3c-1.9,6-8.8,10.5-17.1,10.5c-7.3,0-13.6-3.5-16.3-8.4h-0.1l-18.6-37.8l0,0l-0.8-1.7
		c0-0.1,0-0.1,0-0.2l-0.8-1.9c-1.1-1.7-3-2.8-5.1-2.9h-3.9c-1.7,0.2-3.1,1.7-3.1,3.4v42.9c0,0.1,0,0.2,0,0.3c0,3.2-2.5,5.8-6.4,5.8
		s-6.9-2.6-7-5.8c0,0,0,0,0-0.1l0,0v-46.6v-7c0.2-2.4,2.2-4.3,4.7-4.4h8.7h11l0,0c0,0,7.4-1.1,12.6,9.6c0.2,0.4,0.4,0.8,0.5,1.1
		l17.7,39.5h0.1c1,2.1,3.6,3.6,6.7,3.6s5.7-1.5,6.7-3.6h0.2l29.3-61.5c1.6-2.9,3.8-3.7,4.7-3.8h8.4L435.2,154.3z M420.9,146.2
		L420.9,146.2L420.9,146.2c-0.4,0.9-1.3,1.5-2.4,1.5s-2-0.6-2.3-1.5h-0.1l0,0l-17.6-40.4c-5.8-11.3-13.6-9.9-17-10.1h-0.3l-4.1-0.1
		l0,0H320v-0.1c-2.5-0.2-4.1-2-4.1-5s2-4.8,4.4-5l0,0h0.1h0.1h0.1h63.5v0.1c2.7,0,18.5-1,25.6,19.9l8.9,22.5l16.9-37.9
		c2.1-4.1,6.2-4.7,6.2-4.7h6.7L420.9,146.2L420.9,146.2z M320,100.6L320,100.6h0.4c0.1,0,0.1,0,0.2,0c0.1,0,0.1,0,0.2,0h15.5h9.4
		c2.5,0.1,3.6,2.1,3.9,4.5c0,0.2,0,0.3,0,0.4v0.1c0,0.1,0,0.2,0,0.3v1.5l0,0v4.6v46.7h-0.1c-0.1,3.1-2.8,5.5-6.7,5.5
		c-3.8,0-6.5-2.6-6.6-5.7l0,0v-38.2c0,0,0,0-0.1,0v-5.1c0-1.7-1.3-3.1-3-3.4h-12.4c-0.1,0-0.1,0-0.2,0c-0.1,0-0.1,0-0.2,0H320l0,0
		c-2.3-0.3-4.1-2.7-4.1-5.6C315.9,103.3,317.7,100.9,320,100.6z M235.9,164.7C235.9,164.7,235.8,164.7,235.9,164.7h-11.5
		c-0.5,0-1,0-1.5,0c-27.5,0-49.7-17.8-49.7-39.9c0-22,22.3-39.8,49.7-39.8c0.1,0,0.1,0,0.2,0h12.8l0,0l0,0c2.6,0,4.7,2.5,4.7,5.6
		s-2.1,5.6-4.7,5.6l0,0l0,0h-12.7h-0.1c-19.7,0-35.7,12.8-35.7,28.6s16,28.7,35.7,28.7c0.4,0,0.7,0,1.1,0h11.7l0,0l0,0
		c2.6,0,4.7,2.5,4.7,5.6C240.5,162.2,238.5,164.7,235.9,164.7z M223.2,138.2c0.2,0,0.3,0,0.5,0h12.1h0.1c2.6,0,4.7,2.5,4.7,5.7
		c0,3.1-2.1,5.6-4.7,5.6h-0.1l0,0h-12.1c-0.3,0-0.6,0-1,0c-17,0-30.8-11-30.8-24.6s13.8-24.6,30.8-24.6h0.1h12.8c0.1,0,0.2,0,0.2,0
		c2.6,0,4.7,2.5,4.7,5.7c0,3.1-2.1,5.7-4.7,5.7h-0.1l0,0h-12.5l0,0c-9.2,0-16.6,6-16.6,13.3C206.5,132.3,214,138.2,223.2,138.2z"/>
	<path id="c" class="st7" d="M294.6,138.2c0.2,0,0.3,0,0.5,0h12.1h0.1c2.6,0,4.7,2.5,4.7,5.6c0,3.1-2.1,5.7-4.7,5.7h-0.1l0,0h-12.1
		c-0.3,0-0.6,0-1,0c-17,0-30.8-11-30.8-24.6s13.8-24.6,30.8-24.6h0.1H307c0.1,0,0.2,0,0.2,0c2.6,0,4.7,2.5,4.7,5.6s-2.1,5.7-4.7,5.7
		h-0.1l0,0h-12.5c0,0,0,0-0.1,0c-9.2,0-16.6,6-16.6,13.3C277.9,132.3,285.4,138.2,294.6,138.2z M307.3,96.2L307.3,96.2h-12.8l0,0
		h-0.1c-19.7,0-35.8,12.9-35.8,28.7s16,28.6,35.8,28.6c0.4,0,0.7,0,1.1,0h11.7c0,0,0,0,0.1,0c2.6,0,4.7,2.5,4.7,5.6
		c0,3.1-2.1,5.6-4.7,5.6c0,0,0,0-0.1,0h-11.5c-0.5,0-1,0-1.5,0c-27.5,0-49.7-17.8-49.7-39.8s22.3-39.8,49.7-39.8c0.1,0,0.1,0,0.2,0
		h12.8l0,0c0,0,0,0,0.1,0c2.6,0,4.7,2.5,4.7,5.6C312,93.7,309.9,96.2,307.3,96.2z"/>
</g>
<path id="_x31__1_" class="st2" d="M541.2,171.1h16.7V107h-24l-6,14.1h13.3V171.1z"/>
</svg>
