<?xml version="1.0" encoding="utf-8"?>
<!-- Generator: Adobe Illustrator 25.2.1, SVG Export Plug-In . SVG Version: 6.00 Build 0)  -->
<svg version="1.1" id="图层_1" xmlns="http://www.w3.org/2000/svg" xmlns:xlink="http://www.w3.org/1999/xlink" x="0px" y="0px"
	 viewBox="0 0 84 84" style="enable-background:new 0 0 84 84;" xml:space="preserve">
<style type="text/css">
	.st0{fill:#2E2C29;}
	.st1{fill-rule:evenodd;clip-rule:evenodd;fill:#DDB486;}
</style>
<path id="bg" class="st0" d="M25,10h34c8.3,0,15,6.7,15,15v34c0,8.3-6.7,15-15,15H25c-8.3,0-15-6.7-15-15V25C10,16.7,16.7,10,25,10z
	"/>
<path id="形状_2" class="st1" d="M65.4,22.5c-1,0.4-2.1,0.7-3.2,0.8c-4.5,0.5-6.2,1.9-9.2,7.3c-3.6,6.6-5.1,7.7-13.6,10.7
	c-7.3,2.6-8.3,3-9.9,4.4c-1.2,1-2.3,2.2-3.2,3.6c-1.5,2-1.8,2.3-3.1,2.3c-0.9,0-1.8-0.1-2.7-0.2c-2.5-0.4-4-0.3-4.8,0.3
	c-0.3,0.2-0.5,0.4-0.7,0.7c0.9,0.8,1.9,1.5,3,2.1c0.2,0.2,0.2,0.3-0.1,0.8c-1,1.4-1.3,2.1-1.3,2.5s0.1,0.5,0.9,0.4
	c0.7,0,1.3-0.1,2-0.3c2.5-0.9,4.8-2.2,7-3.6c4.3-2.9,5.8-3.3,12.3-2.7c1.8,0.2,3.8,0.3,4.6,0.3c1.4,0,1.4-0.1,1.9-0.7
	c0.3-0.4,0.6-0.9,0.8-1.4c0.2-0.8,0.5-1.6,1-2.2c0.4,0-0.4,3.9-1.1,5.3c-0.7,1.4-1.5,2.7-2.5,3.9L43,57.4h0.7
	c1.6-0.3,3.1-0.8,4.4-1.7c2.2-1.6,3.8-3.8,4.7-6.3c0.1-0.5,0.4-0.9,0.7-1.3c0.1,0.4,0.1,0.9,0.1,1.3l-0.1,1.3L54,50
	c1.5-1.1,2.8-2.6,3.6-4.4c1.3-2.7,1.8-4.2,3.3-12c0.6-2.9,0.9-3.4,4.1-5.9c1.3-0.9,2.1-2.4,2.4-4C67.8,22.2,67.2,21.6,65.4,22.5
	L65.4,22.5L65.4,22.5z"/>
</svg>
