<?xml version="1.0" encoding="utf-8"?>
<!-- Generator: Adobe Illustrator 25.2.1, SVG Export Plug-In . SVG Version: 6.00 Build 0)  -->
<svg version="1.1" id="bw" xmlns="http://www.w3.org/2000/svg" xmlns:xlink="http://www.w3.org/1999/xlink" x="0px" y="0px"
	 viewBox="0 0 84 84" style="enable-background:new 0 0 84 84;" xml:space="preserve">
<style type="text/css">
	.st0{fill:#3060FE;}
	.st1{fill-rule:evenodd;clip-rule:evenodd;fill:#FFFFFF;}
</style>
<path id="bg" class="st0" d="M25,10h34c8.3,0,15,6.7,15,15v34c0,8.3-6.7,15-15,15H25c-8.3,0-15-6.7-15-15V25C10,16.7,16.7,10,25,10z
	"/>
<path id="bitwarden" class="st1" d="M42,65c-9.7-2.6-17-13.1-17-17V27c0-1.1,0.9-2,2-2h30c1.1,0,2,0.9,2,2v21
	C59,51.9,51.7,62.4,42,65z M54,30H42v30c2,0,10.3-5.6,12-12V30z"/>
</svg>
