<?xml version="1.0" encoding="utf-8"?>
<!-- Generator: Adobe Illustrator 25.2.1, SVG Export Plug-In . SVG Version: 6.00 Build 0)  -->
<svg version="1.1" id="图层_1" xmlns="http://www.w3.org/2000/svg" xmlns:xlink="http://www.w3.org/1999/xlink" x="0px" y="0px"
	 viewBox="0 0 84 84" style="enable-background:new 0 0 84 84;" xml:space="preserve">
<style type="text/css">
	.st0{fill:#3060FE;}
	.st1{fill-rule:evenodd;clip-rule:evenodd;fill:#FFFFFF;}
</style>
<path id="bg" class="st0" d="M25,10h34c8.3,0,15,6.7,15,15v34c0,8.3-6.7,15-15,15H25c-8.3,0-15-6.7-15-15V25C10,16.7,16.7,10,25,10z
	"/>
<path id="kodbox" class="st1" d="M47.4,42.2l12.1,12.1c1.6,1.6,1.6,4.1,0,5.7s-4.1,1.6-5.7,0L41.8,47.9L29.9,59.7
	c-0.4,0.4-0.9,0.7-1.4,1c-0.1,0-0.2,0.1-0.3,0.1c-0.1,0-0.3,0.1-0.4,0.1c-2.2,0.4-4.3-0.9-4.7-3.1c-0.1-0.3-0.1-0.7-0.1-1V27
	c0-2.2,1.8-4,4-4s4,1.8,4,4v20.3l22.9-22.9c1.6-1.6,4.1-1.6,5.7,0c1.6,1.6,1.6,4.1,0,5.7l0,0L47.4,42.2z"/>
</svg>
