<?xml version="1.0" encoding="utf-8"?>
<!-- Generator: Adobe Illustrator 25.2.1, SVG Export Plug-In . SVG Version: 6.00 Build 0)  -->
<svg version="1.1" id="qb" xmlns="http://www.w3.org/2000/svg" xmlns:xlink="http://www.w3.org/1999/xlink" x="0px" y="0px"
	 viewBox="0 0 82 82" style="enable-background:new 0 0 82 82;" xml:space="preserve">
<style type="text/css">
	.st0{fill-rule:evenodd;clip-rule:evenodd;fill:#DAEFFF;}
	.st1{fill-rule:evenodd;clip-rule:evenodd;fill:url(#bg2_1_);}
	.st2{fill-rule:evenodd;clip-rule:evenodd;fill:#FFFFFF;}
	.st3{fill-rule:evenodd;clip-rule:evenodd;fill:#C8E8FF;}
</style>
<circle id="bg1" class="st0" cx="41" cy="41" r="32"/>
<linearGradient id="bg2_1_" gradientUnits="userSpaceOnUse" x1="-918.0634" y1="580.499" x2="-918.0378" y2="580.4526" gradientTransform="matrix(992 0 0 -992 910745 575869)">
	<stop  offset="0" style="stop-color:#72B4F5"/>
	<stop  offset="1" style="stop-color:#356EBF"/>
</linearGradient>
<circle id="bg2" class="st1" cx="41" cy="41" r="30"/>
<path id="b" class="st2" d="M53.1,32.5c-2.2,0-3.8,0.6-4.7,1.9c-1,1.2-1.4,3.4-1.4,6.3s0.5,5.1,1.5,6.4c1,1.3,2.6,1.9,4.8,1.9
	c2,0,3.4-0.7,4.4-2.1c1-1.4,1.4-3.5,1.4-6.2c0-2.8-0.5-4.8-1.4-6.2C56.6,33.1,55.1,32.5,53.1,32.5L53.1,32.5z M53.6,29.8
	c2.8,0,4.9,1,6.5,2.9c1.5,1.9,2.3,4.6,2.3,8c0,3.5-0.8,6.2-2.3,8.1c-1.5,1.9-3.7,2.9-6.4,2.9c-1.4,0-2.6-0.3-3.8-0.8
	c-1.1-0.5-2.1-1.3-2.9-2.4h-0.2L46,51.3h-2.3v-30h3.2v7.3c0,1.6-0.1,3.1-0.2,4.4h0.2C48.4,30.8,50.6,29.8,53.6,29.8L53.6,29.8z"/>
<path id="a" class="st3" d="M28.8,49c2.1,0,3.7-0.6,4.7-1.7c1-1.1,1.5-3.1,1.6-5.8v-0.7c0-3-0.5-5.1-1.5-6.4c-1-1.3-2.6-1.9-4.8-1.9
	c-1.9,0-3.3,0.7-4.3,2.2c-1,1.5-1.5,3.5-1.5,6.2c0,2.7,0.5,4.7,1.5,6.1C25.4,48.3,26.9,49,28.8,49L28.8,49z M28.3,51.6
	c-2.7,0-4.9-1-6.4-2.9c-1.5-1.9-2.3-4.6-2.3-8c0-3.5,0.8-6.2,2.3-8.1c1.5-1.9,3.7-2.9,6.4-2.9c2.9,0,5.1,1.1,6.7,3.3h0.2l0.5-2.9
	h2.5v30.6h-3.2v-9c0-1.3,0.1-2.4,0.2-3.3H35C33.5,50.6,31.3,51.6,28.3,51.6L28.3,51.6z"/>
</svg>
