<svg xmlns="http://www.w3.org/2000/svg" width="64" height="64" viewBox="0 0 64 64">
  <defs>
    <style>
      .cls-1 {
        fill: #2e2c29;
        stroke: #0a0205;
        stroke-width: 1px;
      }

      .cls-2 {
        fill: #ddb486;
        fill-rule: evenodd;
      }
    </style>
  </defs>
  <g id="MariaDB">
    <rect id="bg" class="cls-1" width="64" height="64" rx="15" ry="15"/>
    <path id="形状_2" data-name="形状 2" class="cls-2" d="M55.375,12.522a8.757,8.757,0,0,1-3.154.764c-4.47.53-6.191,1.9-9.188,7.306-3.648,6.551-5.054,7.664-13.636,10.686-7.32,2.613-8.26,3.014-9.928,4.385a16.21,16.21,0,0,0-3.206,3.563c-1.453,2.028-1.77,2.27-3.114,2.3a24.156,24.156,0,0,1-2.66-.217c-2.485-.383-3.953-0.291-4.816.324a1.842,1.842,0,0,0-.682.664,19.792,19.792,0,0,0,2.96,2.092c0.237,0.155.222,0.263-.141,0.775-1.021,1.425-1.345,2.062-1.334,2.492s0.084,0.464.944,0.442a10.52,10.52,0,0,0,2-.321A36.839,36.839,0,0,0,16.41,44.17c4.334-2.947,5.8-3.272,12.287-2.653,1.78,0.168,3.845.294,4.616,0.274,1.362-.036,1.4-0.055,1.918-0.732a4.562,4.562,0,0,0,.752-1.418,6.523,6.523,0,0,1,.964-2.231c0.376-.01-0.4,3.938-1.062,5.336A25.392,25.392,0,0,1,33.4,46.683l-0.505.551,0.735-.019A10.994,10.994,0,0,0,38,45.487a13.956,13.956,0,0,0,4.729-6.346,3.8,3.8,0,0,1,.682-1.327,3.457,3.457,0,0,1,.052,1.29l-0.109,1.312,0.635-.393a11.771,11.771,0,0,0,3.616-4.38c1.31-2.688,1.754-4.224,3.343-12.03,0.6-2.939.915-3.4,4.131-5.9a5.946,5.946,0,0,0,2.371-3.971c0.352-1.53-.271-2.109-2.076-1.219h0Zm0,0"/>
  </g>
</svg>
